<?xml version="1.0" standalone="no"?>
<!DOCTYPE svg PUBLIC "-//W3C//DTD SVG 20010904//EN"
 "http://www.w3.org/TR/2001/REC-SVG-20010904/DTD/svg10.dtd">
<svg version="1.0" xmlns="http://www.w3.org/2000/svg"
 width="700.000000pt" height="700.000000pt" viewBox="0 0 700.000000 700.000000"
 preserveAspectRatio="xMidYMid meet">
<metadata>
Created by potrace 1.14, written by Peter Selinger 2001-2017
</metadata>
<g transform="translate(0.000000,700.000000) scale(0.100000,-0.100000)"
fill="#000000" stroke="none">
<path d="M1575 6989 c-485 -51 -932 -301 -1219 -683 -154 -205 -266 -452 -316
-695 -40 -199 -41 -256 -37 -2191 l3 -1865 22 -112 c153 -793 772 -1357 1572
-1433 80 -8 682 -10 1980 -7 l1865 3 112 22 c738 142 1282 691 1416 1425 l22
122 0 1925 0 1925 -22 122 c-144 790 -763 1362 -1562 1443 -125 12 -3715 12
-3836 -1z m-351 -881 c35 -10 100 -70 431 -400 215 -213 395 -388 400 -388 6
0 179 169 385 376 413 415 425 424 535 424 146 0 256 -110 257 -256 1 -114 -4
-120 -425 -542 l-382 -382 392 -393 c424 -425 417 -416 416 -527 -2 -140 -113
-251 -252 -253 -112 -1 -102 -8 -528 416 l-393 392 -382 -382 c-422 -421 -428
-426 -542 -425 -146 1 -256 111 -256 257 0 110 9 122 424 535 207 206 376 379
376 385 0 5 -175 185 -388 400 -423 425 -412 411 -412 526 1 172 168 287 344
237z m4021 -22 c441 -119 775 -479 860 -929 23 -121 21 -321 -5 -449 -95 -465
-454 -823 -930 -924 -114 -24 -343 -24 -455 0 -238 52 -440 160 -605 326 -166
166 -275 368 -326 605 -24 112 -24 342 0 455 100 472 453 830 916 929 80 17
123 20 270 17 152 -3 188 -7 275 -30z m-2957 -2872 c229 -47 437 -158 602
-324 166 -166 275 -368 326 -605 24 -112 24 -342 0 -455 -101 -478 -456 -833
-927 -930 -89 -19 -127 -21 -269 -17 -138 4 -181 9 -265 31 -441 119 -775 479
-860 929 -23 121 -21 321 5 449 101 495 509 873 1015 938 92 12 277 4 373 -16z
m1832 4 c27 -8 129 -104 427 -401 l393 -392 382 382 c422 421 428 426 542 425
146 -1 256 -111 256 -257 0 -110 -9 -122 -424 -535 -207 -206 -376 -379 -376
-385 0 -5 175 -185 388 -400 423 -425 412 -411 412 -526 -1 -135 -114 -249
-248 -249 -117 0 -102 -11 -527 412 -215 213 -395 388 -400 388 -6 0 -179
-169 -385 -376 -413 -415 -425 -424 -535 -424 -146 0 -256 110 -257 256 -1
114 4 120 425 542 l382 382 -392 393 c-424 425 -417 416 -416 527 1 69 23 124
71 173 76 79 164 100 282 65z"/>
<path d="M4802 5585 c-179 -39 -359 -179 -440 -342 -56 -114 -76 -210 -69
-337 17 -334 279 -596 613 -613 199 -11 360 51 501 192 97 98 152 201 179 335
59 295 -101 602 -379 724 -117 52 -278 68 -405 41z"/>
<path d="M1892 2690 c-119 -32 -207 -83 -299 -176 -136 -136 -201 -302 -190
-489 20 -337 277 -598 612 -622 316 -22 611 200 681 513 12 57 15 103 11 178
-14 265 -180 489 -432 579 -109 40 -274 47 -383 17z"/>
</g>
</svg>
